<svg viewBox="0 0 640 400" xmlns="http://www.w3.org/2000/svg">
<rect width="640" height="400" fill="#14171C"/>
<g stroke="#3A3F4B" stroke-width="1" opacity="0.6">
<line x1="60" y1="80" x2="60" y2="330"/>
<line x1="60" y1="330" x2="580" y2="330"/>
</g>
<g fill="#6E7FF3" opacity="0.85">
<rect x="90" y="220" width="34" height="110"/>
<rect x="150" y="150" width="34" height="180"/>
<rect x="210" y="190" width="34" height="140"/>
</g>
<g fill="#8B99F6" opacity="0.55">
<rect x="270" y="260" width="34" height="70"/>
<rect x="330" y="120" width="34" height="210"/>
<rect x="390" y="170" width="34" height="160"/>
</g>
<path d="M90 250 L150 200 L210 235 L270 290 L330 130 L390 195 L450 160" fill="none" stroke="#F5A623" stroke-width="2.5" opacity="0.9"/>
<g fill="#F5A623">
<circle cx="90" cy="250" r="4"/><circle cx="150" cy="200" r="4"/><circle cx="210" cy="235" r="4"/>
<circle cx="270" cy="290" r="4"/><circle cx="330" cy="130" r="4"/><circle cx="390" cy="195" r="4"/><circle cx="450" cy="160" r="4"/>
</g>
</svg>
