<svg viewBox="0 0 640 400" xmlns="http://www.w3.org/2000/svg">
<rect width="640" height="400" fill="#14171C"/>
<g stroke="#6E7FF3" stroke-width="1.4" opacity="0.55" fill="none">
<path d="M60 320 L200 220 L340 260 L480 140 L580 180"/>
<path d="M60 200 L180 260 L320 160 L440 220 L580 120"/>
<path d="M60 100 L220 150 L360 90 L500 200 L580 260"/>
</g>
<g fill="#8B99F6">
<circle cx="60" cy="320" r="5"/><circle cx="200" cy="220" r="5"/><circle cx="340" cy="260" r="5"/><circle cx="480" cy="140" r="5"/><circle cx="580" cy="180" r="5"/>
<circle cx="60" cy="200" r="4"/><circle cx="180" cy="260" r="4"/><circle cx="320" cy="160" r="4"/><circle cx="440" cy="220" r="4"/><circle cx="580" cy="120" r="4"/>
<circle cx="60" cy="100" r="4"/><circle cx="220" cy="150" r="4"/><circle cx="360" cy="90" r="4"/><circle cx="500" cy="200" r="4"/><circle cx="580" cy="260" r="4"/>
</g>
</svg>
